<svg xmlns="http://www.w3.org/2000/svg" xmlns:xlink="http://www.w3.org/1999/xlink" width="500" zoomAndPan="magnify" viewBox="0 0 375 374.999991" height="500" preserveAspectRatio="xMidYMid meet" version="1.0"><defs><g/><clipPath id="3e997b00f1"><path d="M 95 5.527344 L 252 5.527344 L 252 225 L 95 225 Z M 95 5.527344 " clip-rule="nonzero"/></clipPath><clipPath id="ed1ba9b490"><path d="M 85 195 L 120 195 L 120 246.277344 L 85 246.277344 Z M 85 195 " clip-rule="nonzero"/></clipPath></defs><g clip-path="url(#3e997b00f1)"><path fill="#050a30" d="M 228.386719 11.769531 C 230.277344 12.367188 232.210938 12.675781 234.195312 12.691406 C 236.175781 12.710938 238.117188 12.433594 240.015625 11.867188 C 240.714844 11.734375 241.382812 11.515625 242.023438 11.203125 C 242.664062 10.894531 243.253906 10.507812 243.789062 10.042969 C 244.328125 9.574219 244.792969 9.046875 245.191406 8.460938 C 245.589844 7.871094 245.902344 7.238281 246.132812 6.566406 C 246.484375 5.527344 246.972656 5.628906 247.636719 6.191406 C 247.753906 6.371094 247.78125 6.5625 247.726562 6.769531 C 247.027344 8.246094 246.152344 9.609375 245.101562 10.867188 C 244.882812 11.078125 244.714844 11.328125 244.59375 11.609375 C 244.476562 11.890625 244.417969 12.183594 244.417969 12.488281 C 244.417969 12.792969 244.476562 13.085938 244.59375 13.371094 C 244.714844 13.652344 244.882812 13.898438 245.101562 14.113281 C 245.3125 14.398438 245.550781 14.660156 245.816406 14.902344 C 248.449219 17.050781 250.292969 19.738281 251.355469 22.960938 C 251.597656 23.21875 251.65625 23.515625 251.53125 23.847656 C 248.582031 26.355469 245.050781 26.542969 241.484375 26.117188 C 240.152344 25.96875 239.800781 26.230469 239.539062 27.496094 C 239.390625 28.175781 239.207031 28.84375 238.980469 29.5 C 238.757812 30.160156 238.5 30.800781 238.203125 31.429688 C 237.90625 32.058594 237.578125 32.667969 237.214844 33.261719 C 236.851562 33.851562 236.453125 34.421875 236.023438 34.96875 C 235.597656 35.515625 235.140625 36.039062 234.652344 36.535156 C 234.164062 37.03125 233.652344 37.5 233.113281 37.9375 C 232.570312 38.375 232.007812 38.78125 231.425781 39.15625 C 230.839844 39.53125 230.234375 39.875 229.609375 40.183594 C 228.984375 40.488281 228.347656 40.761719 227.691406 40.996094 C 227.039062 41.234375 226.371094 41.429688 225.695312 41.59375 C 225.019531 41.753906 224.335938 41.878906 223.644531 41.960938 C 222.953125 42.046875 222.261719 42.09375 221.5625 42.097656 C 220.867188 42.105469 220.175781 42.074219 219.480469 42.003906 C 218.789062 41.933594 218.105469 41.824219 217.421875 41.675781 C 216.742188 41.527344 216.074219 41.34375 215.414062 41.121094 C 214.757812 40.894531 214.113281 40.636719 213.480469 40.34375 C 213.082031 40.179688 212.699219 39.984375 212.328125 39.765625 C 211.070312 38.886719 210.667969 39.390625 210.328125 40.65625 C 209.398438 44.367188 207.722656 47.710938 205.304688 50.683594 C 198.109375 59.355469 185.90625 64.203125 173.5625 58.203125 C 170.921875 56.949219 170.835938 56.949219 168.953125 59.277344 C 158.277344 72.640625 147.605469 86 137.394531 99.734375 C 128.816406 111.300781 120.503906 123.042969 112.832031 135.226562 C 107.609375 143.496094 104.542969 152.433594 105.097656 162.308594 C 105.609375 171.796875 109.929688 179.464844 117.175781 185.496094 C 126.21875 193.015625 136.527344 198.578125 146.625 204.480469 C 153.167969 208.242188 159.972656 211.574219 167.53125 212.953125 C 168.515625 213.148438 169.507812 213.246094 170.507812 213.253906 C 175.15625 213.191406 174.277344 213.832031 174.980469 209.117188 C 175.28125 206.949219 174.980469 204.71875 175.382812 202.527344 C 175.433594 202.089844 175.371094 201.675781 175.195312 201.273438 C 175.015625 200.875 174.746094 200.546875 174.390625 200.296875 C 173.441406 199.480469 172.804688 198.46875 172.480469 197.261719 C 172.34375 196.957031 172.3125 196.644531 172.394531 196.316406 C 172.472656 195.992188 172.644531 195.726562 172.90625 195.519531 C 173.167969 195.320312 173.464844 195.203125 173.792969 195.175781 C 174.125 195.144531 174.433594 195.207031 174.726562 195.355469 C 175.058594 195.5 175.363281 195.6875 175.636719 195.921875 C 175.914062 196.15625 176.148438 196.425781 176.34375 196.730469 C 176.535156 197.03125 176.683594 197.359375 176.78125 197.703125 C 176.878906 198.050781 176.921875 198.40625 176.914062 198.765625 C 177.1875 202.464844 177.15625 206.164062 176.8125 209.859375 C 176.777344 211.640625 176.574219 213.402344 176.199219 215.144531 C 176.035156 215.660156 176.097656 216.398438 175.320312 216.398438 C 175.296875 216.125 175.214844 215.871094 175.078125 215.636719 C 174.941406 215.398438 174.757812 215.203125 174.53125 215.046875 C 174.304688 214.894531 174.054688 214.796875 173.785156 214.753906 C 173.511719 214.710938 173.246094 214.730469 172.984375 214.808594 C 172.210938 214.949219 171.449219 214.90625 170.699219 214.683594 C 165.675781 214.683594 161.089844 212.941406 156.558594 211.046875 C 150.367188 208.308594 144.398438 205.15625 138.648438 201.585938 L 136.503906 200.332031 C 131.277344 208.667969 125.714844 216.6875 119.8125 224.46875 C 119.296875 224.46875 119.085938 224.121094 118.808594 223.804688 C 117.222656 222.058594 115.886719 220.140625 114.804688 218.042969 C 113.722656 215.949219 112.925781 213.75 112.417969 211.449219 C 111.222656 206.988281 110.609375 202.363281 108.472656 198.191406 C 108.164062 197.585938 107.710938 197.125 107.117188 196.796875 C 106.582031 196.59375 106.058594 196.363281 105.546875 196.097656 C 105.308594 195.894531 105.121094 195.671875 105.320312 195.34375 C 107.542969 191.859375 110.34375 188.867188 112.855469 185.558594 C 113.109375 185.21875 113.371094 184.894531 113.722656 184.441406 C 111.652344 182.1875 109.757812 179.796875 108.046875 177.261719 C 105.378906 173.71875 103.238281 169.882812 101.628906 165.753906 C 99.382812 160.207031 97.707031 154.492188 96.605469 148.609375 C 95.925781 144.238281 95.761719 139.847656 96.117188 135.4375 C 96.570312 128.183594 99.570312 121.878906 103 115.714844 C 107.472656 108.023438 112.382812 100.621094 117.730469 93.503906 C 129.683594 76.9375 141.941406 60.59375 154.738281 44.628906 C 158.027344 40.519531 161.566406 36.609375 164.632812 32.320312 C 164.882812 31.984375 165.210938 31.695312 165.484375 31.367188 C 165.570312 31.234375 165.679688 31.125 165.8125 31.039062 C 165.949219 30.953125 166.09375 30.898438 166.25 30.878906 C 166.410156 30.859375 166.566406 30.871094 166.714844 30.921875 C 166.867188 30.96875 167.003906 31.046875 167.117188 31.15625 C 168.914062 32.199219 170.820312 32.957031 172.84375 33.429688 C 174.867188 33.902344 176.914062 34.066406 178.984375 33.925781 C 180.644531 33.875 182.28125 33.65625 183.894531 33.269531 C 185.511719 32.882812 187.066406 32.335938 188.566406 31.625 C 190.070312 30.917969 191.480469 30.0625 192.804688 29.0625 C 194.128906 28.066406 195.335938 26.941406 196.429688 25.691406 C 198.191406 23.910156 199.5625 21.867188 200.546875 19.5625 C 200.898438 18.660156 201.386719 18.535156 202.167969 19 L 204.554688 20.402344 C 205.773438 21.113281 207.054688 21.695312 208.394531 22.144531 C 209.734375 22.59375 211.105469 22.902344 212.511719 23.074219 C 213.914062 23.242188 215.320312 23.269531 216.730469 23.15625 C 218.140625 23.039062 219.523438 22.78125 220.878906 22.382812 C 222.160156 21.957031 223.351562 21.355469 224.457031 20.578125 C 224.859375 20.429688 225.046875 20.652344 225.171875 20.980469 C 225.296875 21.304688 225.171875 21.292969 225.109375 21.394531 C 221.894531 24.726562 222.132812 28.285156 224.191406 32.132812 C 225.324219 33.925781 225.898438 35.882812 225.925781 38 C 225.839844 39.617188 226.855469 39.039062 227.621094 38.761719 C 229.617188 38.023438 231.394531 36.933594 232.953125 35.484375 C 234.511719 34.039062 235.730469 32.347656 236.613281 30.417969 C 238.394531 26.746094 238.457031 23.484375 235.054688 20.527344 C 232.636719 18.320312 230.457031 15.894531 228.511719 13.257812 C 228.425781 12.757812 227.933594 12.292969 228.386719 11.769531 Z M 228.386719 11.769531 " fill-opacity="1" fill-rule="nonzero"/></g><path fill="#050a30" d="M 170.761719 214.808594 C 171.535156 214.839844 172.3125 214.8125 173.082031 214.71875 C 174.589844 214.417969 175.242188 215.195312 175.59375 216.460938 C 176.386719 217.164062 175.984375 218.015625 175.945312 218.855469 C 175.808594 221.6875 175.292969 224.507812 175.332031 227.351562 C 175.230469 228.496094 175.460938 229.570312 176.023438 230.574219 C 177.191406 230.046875 177.480469 228.945312 177.867188 227.929688 C 179.714844 223.003906 180.140625 217.789062 181.058594 212.691406 C 181.925781 207.851562 182.628906 202.988281 183.667969 198.175781 C 184.046875 196.121094 184.789062 194.207031 185.90625 192.4375 C 187.625 189.867188 189.03125 189.929688 190.589844 192.625 C 190.726562 192.863281 190.839844 193.140625 191.152344 193.265625 C 191.832031 193.175781 191.933594 192.523438 192.207031 192.011719 C 192.820312 190.875 193.582031 189.851562 194.496094 188.941406 C 195.007812 188.464844 195.585938 187.6875 196.316406 188.101562 C 197.042969 188.515625 196.542969 189.355469 196.316406 189.980469 C 195.839844 191.550781 195.546875 193.15625 195.4375 194.792969 C 195.34375 196.007812 195.113281 197.191406 194.746094 198.351562 C 194.53125 198.980469 194.179688 199.53125 193.414062 199.605469 C 192.648438 199.679688 192.421875 199.128906 192.160156 198.589844 C 191.695312 197.527344 191.632812 195.785156 190.085938 196.023438 C 188.542969 196.257812 188.832031 198.089844 188.71875 199.230469 C 188.328125 202.125 188.039062 205.019531 187.5625 208.152344 C 190.34375 206.136719 192.71875 203.726562 194.695312 200.921875 C 200.488281 193.742188 205.835938 186.242188 210.730469 178.425781 C 215.753906 170.367188 221.582031 162.886719 227.167969 155.242188 C 235.882812 143.320312 244.136719 131.101562 252.648438 119.058594 C 260.761719 107.605469 268.746094 96.050781 275.832031 83.96875 C 280.152344 76.574219 284.207031 69.054688 285.875 60.507812 C 288.125 48.914062 285.058594 38.699219 278.117188 29.375 C 273.445312 23.183594 267.726562 18.175781 260.960938 14.363281 C 260.351562 13.988281 259.710938 13.667969 259.039062 13.410156 C 258.554688 13.105469 258.027344 12.980469 257.457031 13.035156 C 257.433594 14.558594 257.1875 16.042969 256.714844 17.492188 C 256.242188 18.941406 255.5625 20.285156 254.683594 21.53125 C 253.90625 22.582031 253.175781 23.835938 251.507812 23.574219 L 251.003906 23.171875 C 250.929688 22.308594 251.667969 21.996094 252.148438 21.519531 C 253.144531 20.503906 253.949219 19.351562 254.550781 18.058594 C 255.152344 16.769531 255.523438 15.414062 255.664062 14 C 255.734375 13.648438 255.742188 13.296875 255.6875 12.941406 C 255.632812 12.585938 255.515625 12.253906 255.339844 11.941406 C 255.164062 11.628906 254.9375 11.359375 254.660156 11.128906 C 254.386719 10.898438 254.082031 10.722656 253.742188 10.601562 C 252.121094 9.886719 250.5625 9.050781 249.070312 8.097656 C 248.492188 7.734375 247.726562 7.558594 247.613281 6.707031 L 247.613281 6.230469 C 250.433594 7.390625 253.160156 8.746094 255.789062 10.289062 C 259.601562 12.054688 263.265625 14.082031 266.789062 16.367188 C 270.273438 18.757812 273.421875 21.523438 276.242188 24.667969 C 279.058594 27.8125 281.460938 31.246094 283.453125 34.964844 C 289.042969 45.441406 289.394531 56.269531 285.5625 67.375 C 283.054688 74.113281 279.878906 80.523438 276.03125 86.601562 C 269.113281 98.140625 261.375 109.160156 253.714844 120.210938 C 242.503906 136.429688 231.113281 152.507812 219.570312 168.511719 C 214.359375 175.742188 209.675781 183.300781 204.503906 190.558594 C 201.289062 195.09375 197.949219 199.53125 194.367188 203.777344 C 191.351562 207.5625 187.714844 210.613281 183.46875 212.941406 C 183.058594 213.160156 182.738281 213.46875 182.5 213.867188 C 182.265625 214.265625 182.148438 214.695312 182.148438 215.160156 C 181.609375 218.378906 181.195312 221.625 180.355469 224.796875 C 179.988281 226.164062 179.5625 227.527344 179.097656 228.855469 C 178.792969 229.65625 178.40625 230.414062 177.929688 231.125 C 177.464844 231.828125 176.875 232.667969 175.945312 232.542969 C 175.015625 232.417969 174.578125 231.4375 174.351562 230.5 C 173.898438 228.246094 173.820312 225.984375 174.113281 223.707031 C 174.339844 220.886719 174.640625 218.089844 174.917969 215.285156 C 173.421875 214.808594 172.015625 215.460938 170.761719 214.808594 Z M 170.761719 214.808594 " fill-opacity="1" fill-rule="nonzero"/><g clip-path="url(#ed1ba9b490)"><path fill="#050a30" d="M 105.382812 195.433594 L 105.875 195.957031 C 106.0625 197.210938 105.144531 197.925781 104.519531 198.730469 C 99.828125 204.757812 95.601562 211.097656 91.835938 217.742188 C 88.707031 223.128906 86.335938 228.832031 86.273438 233.457031 C 86.121094 229.371094 88.707031 224.445312 91.472656 219.546875 C 96.15625 211.367188 101.503906 203.644531 107.519531 196.386719 L 108.839844 197.636719 C 103.285156 204.710938 98.183594 212.089844 93.53125 219.785156 C 92.007812 222.445312 90.644531 225.191406 89.449219 228.015625 C 88.160156 231.101562 87.675781 234.304688 87.992188 237.628906 C 88 237.917969 88.023438 238.207031 88.066406 238.496094 C 88.105469 238.78125 88.164062 239.066406 88.242188 239.34375 C 88.316406 239.625 88.410156 239.898438 88.519531 240.167969 C 88.628906 240.433594 88.753906 240.695312 88.898438 240.949219 C 89.039062 241.203125 89.195312 241.445312 89.367188 241.679688 C 89.535156 241.914062 89.722656 242.136719 89.917969 242.347656 C 90.117188 242.558594 90.328125 242.757812 90.550781 242.945312 C 90.773438 243.132812 91.007812 243.304688 91.25 243.460938 C 91.492188 243.617188 91.746094 243.761719 92.007812 243.886719 C 92.269531 244.015625 92.535156 244.125 92.808594 244.222656 C 93.085938 244.316406 93.363281 244.394531 93.648438 244.453125 C 93.929688 244.515625 94.21875 244.558594 94.507812 244.585938 C 94.796875 244.609375 95.085938 244.617188 95.375 244.609375 C 95.667969 244.601562 95.957031 244.574219 96.242188 244.527344 C 96.527344 244.484375 96.8125 244.421875 97.09375 244.34375 C 97.371094 244.265625 97.644531 244.171875 97.914062 244.058594 C 101.328125 242.652344 104.308594 240.613281 106.855469 237.941406 C 110.71875 234.128906 114.226562 230.015625 117.378906 225.597656 C 117.953125 224.820312 118.355469 223.804688 119.488281 223.605469 C 119.503906 223.960938 119.632812 224.269531 119.875 224.53125 C 115.640625 230.917969 110.617188 236.613281 104.808594 241.613281 C 103.101562 243.027344 101.246094 244.207031 99.242188 245.148438 C 97.164062 246.074219 95.011719 246.320312 92.777344 245.886719 C 91.234375 245.609375 89.980469 244.859375 89.007812 243.632812 C 88.265625 242.792969 87.625 241.878906 87.085938 240.894531 C 86.546875 239.910156 86.125 238.878906 85.816406 237.800781 C 85.507812 236.722656 85.324219 235.621094 85.265625 234.5 C 85.203125 233.382812 85.265625 232.269531 85.457031 231.164062 C 86.472656 224.546875 89.449219 218.792969 92.890625 213.203125 C 96.65625 207.136719 100.699219 201.324219 104.996094 195.65625 C 105.113281 195.558594 105.242188 195.484375 105.382812 195.433594 Z M 105.382812 195.433594 " fill-opacity="1" fill-rule="nonzero"/></g><path fill="#050a30" d="M 224.945312 21.078125 L 224.40625 20.578125 C 224.960938 20.175781 225.460938 19.710938 225.90625 19.1875 C 226.347656 18.660156 226.722656 18.09375 227.03125 17.480469 C 227.339844 16.863281 227.566406 16.222656 227.722656 15.554688 C 227.875 14.886719 227.945312 14.207031 227.933594 13.523438 C 227.804688 12.867188 227.957031 12.28125 228.386719 11.769531 C 228.5 12.21875 228.601562 12.671875 228.714844 13.109375 C 228.988281 14.308594 228.976562 15.503906 228.675781 16.695312 C 228.378906 17.886719 227.824219 18.949219 227.019531 19.875 C 226.515625 20.515625 225.988281 21.292969 224.945312 21.078125 Z M 224.945312 21.078125 " fill-opacity="1" fill-rule="nonzero"/><path fill="#ff66c4" d="M 251.492188 23.574219 C 255.261719 21.355469 257.167969 17.132812 256.769531 11.691406 C 258.023438 12.230469 259.105469 12.683594 260.183594 13.257812 C 262.636719 14.542969 264.976562 16.007812 267.203125 17.65625 C 269.429688 19.300781 271.515625 21.105469 273.460938 23.074219 C 275.40625 25.039062 277.191406 27.144531 278.8125 29.386719 C 280.433594 31.628906 281.871094 33.980469 283.125 36.445312 C 288.074219 46.246094 288.261719 56.359375 284.757812 66.671875 C 282.21875 73.570312 278.984375 80.125 275.050781 86.335938 C 267.980469 98.21875 259.984375 109.507812 252.109375 120.828125 C 245.367188 130.453125 238.660156 140.101562 231.851562 149.652344 C 227.054688 156.46875 222.035156 163.125 217.160156 169.953125 C 214.851562 173.1875 212.664062 176.535156 210.519531 179.890625 C 205.230469 188.246094 199.414062 196.210938 193.0625 203.792969 C 191.1875 205.960938 189.097656 207.898438 186.785156 209.59375 C 188.039062 204.429688 187.699219 199.429688 189.15625 194.90625 C 189.871094 194.707031 189.984375 195.105469 190.199219 195.144531 C 192.058594 195.46875 192.511719 196.796875 192.710938 198.402344 C 192.710938 198.839844 192.898438 199.265625 193.4375 199.304688 C 193.980469 199.34375 194.207031 198.917969 194.304688 198.515625 C 194.597656 197.5625 194.8125 196.59375 194.945312 195.609375 C 195.023438 193.050781 195.570312 190.597656 196.589844 188.25 C 193.652344 189.730469 192.824219 192.523438 191.167969 194.855469 C 190.742188 194.207031 190.433594 193.511719 190.238281 192.761719 C 189.949219 191.960938 189.609375 191.035156 188.628906 190.957031 C 187.648438 190.882812 187.109375 191.636719 186.609375 192.335938 C 185.722656 193.644531 185.089844 195.066406 184.710938 196.597656 C 183.640625 200.945312 182.804688 205.335938 182.199219 209.769531 C 181.457031 215.25 180.441406 220.683594 179.148438 226.0625 C 178.773438 227.75 178.097656 229.304688 177.125 230.738281 C 176.824219 231.125 176.488281 231.625 175.933594 231.4375 C 175.382812 231.25 175.433594 230.8125 175.304688 230.386719 C 174.820312 227.992188 174.765625 225.589844 175.144531 223.179688 C 175.320312 220.910156 175.519531 218.644531 175.71875 216.386719 C 176.453125 211.3125 176.8125 206.210938 176.800781 201.085938 C 176.871094 199.789062 176.671875 198.535156 176.210938 197.324219 C 175.976562 196.683594 175.554688 196.203125 174.953125 195.882812 C 174.675781 195.707031 174.375 195.617188 174.042969 195.617188 C 173.714844 195.617188 173.410156 195.707031 173.132812 195.882812 C 172.441406 196.371094 172.933594 196.9375 173.132812 197.414062 C 173.488281 198.550781 174.171875 199.441406 175.179688 200.082031 C 175.519531 200.289062 175.769531 200.574219 175.933594 200.933594 C 176.09375 201.296875 176.140625 201.671875 176.070312 202.0625 C 175.804688 205.605469 175.570312 209.152344 175.367188 212.703125 C 175.304688 213.78125 174.703125 213.957031 173.8125 213.957031 C 168.609375 214.046875 163.625 213.050781 158.855469 210.972656 C 151.835938 208.105469 145.140625 204.621094 138.761719 200.519531 C 132.585938 196.597656 126.066406 193.164062 120.253906 188.640625 C 115.957031 185.292969 111.964844 181.710938 109.152344 176.945312 C 107.257812 173.738281 105.941406 170.308594 105.203125 166.65625 C 104.464844 163.003906 104.347656 159.332031 104.84375 155.640625 C 105.363281 151.785156 106.308594 148.039062 107.679688 144.398438 C 109.050781 140.757812 110.816406 137.316406 112.96875 134.074219 C 121.007812 121.289062 129.820312 109.007812 138.851562 96.925781 C 148.695312 83.742188 159.03125 70.945312 169.242188 58.074219 L 169.769531 57.398438 C 169.882812 57.195312 170.03125 57.027344 170.222656 56.890625 C 170.410156 56.753906 170.617188 56.664062 170.84375 56.617188 C 171.074219 56.570312 171.300781 56.574219 171.527344 56.628906 C 171.753906 56.683594 171.957031 56.78125 172.140625 56.921875 C 175.125 58.480469 178.28125 59.519531 181.609375 60.03125 C 184.449219 60.59375 187.269531 60.492188 190.0625 59.730469 C 199.769531 56.972656 206.636719 51.15625 209.640625 41.28125 C 209.925781 40.328125 210.242188 39.390625 210.617188 38.210938 C 216.445312 41.632812 222.523438 42.648438 228.878906 39.816406 C 235.230469 36.984375 238.597656 31.757812 239.527344 25.015625 C 240.515625 25.339844 241.527344 25.554688 242.566406 25.65625 C 243.601562 25.757812 244.636719 25.746094 245.671875 25.625 C 246.703125 25.5 247.710938 25.261719 248.695312 24.917969 C 249.675781 24.570312 250.609375 24.125 251.492188 23.574219 Z M 251.492188 23.574219 " fill-opacity="1" fill-rule="nonzero"/><path fill="#ffbd59" d="M 119.488281 223.628906 C 115.003906 229.796875 110.40625 235.863281 104.492188 240.761719 C 102.949219 242.0625 101.273438 243.164062 99.46875 244.070312 C 98.523438 244.570312 97.523438 244.914062 96.46875 245.113281 C 91.597656 245.851562 87.917969 242.90625 87.339844 237.855469 C 87.167969 235.898438 87.265625 233.953125 87.628906 232.023438 C 87.996094 230.09375 88.613281 228.25 89.488281 226.488281 C 92.902344 219.347656 96.996094 212.617188 101.769531 206.296875 C 103.601562 203.792969 105.535156 201.285156 107.417969 198.777344 C 107.785156 198.289062 108.007812 197.527344 108.839844 197.675781 C 110.972656 201.597656 111.613281 205.972656 112.707031 210.207031 C 113.363281 213.195312 114.375 216.058594 115.746094 218.792969 C 116.675781 220.648438 117.921875 222.261719 119.488281 223.628906 Z M 119.488281 223.628906 " fill-opacity="1" fill-rule="nonzero"/><path fill="#ff66c4" d="M 166.089844 32.433594 C 166.703125 35.945312 167.34375 39.476562 167.960938 43.011719 C 168.574219 46.546875 169.214844 50.429688 169.917969 54.128906 C 170.042969 54.566406 170.058594 55.007812 169.960938 55.449219 C 169.859375 55.894531 169.664062 56.289062 169.367188 56.632812 C 161.152344 66.574219 153.179688 76.6875 145.253906 86.875 C 144.789062 87.476562 144.289062 88.042969 143.773438 88.667969 C 143.308594 88.027344 143.773438 87.628906 143.847656 87.1875 C 144.621094 84.398438 144.75 81.578125 144.238281 78.730469 C 143.597656 74.996094 143.253906 71.238281 143.207031 67.449219 C 143.195312 65.261719 143.546875 63.128906 144.265625 61.0625 C 144.984375 58.992188 146.03125 57.105469 147.402344 55.394531 C 151.585938 50.167969 155.601562 44.804688 159.960938 39.714844 C 161.769531 37.609375 163.363281 35.328125 164.984375 33.125 C 165.273438 32.886719 165.386719 32.371094 166.089844 32.433594 Z M 166.089844 32.433594 " fill-opacity="1" fill-rule="nonzero"/><path fill="#ff66c4" d="M 183.480469 59.441406 C 185.765625 58.3125 185.890625 56.433594 185.539062 54.492188 C 185.1875 52.550781 184.597656 50.480469 184.121094 48.476562 C 183.808594 47.222656 183.457031 45.871094 183.191406 44.554688 C 182.960938 43.574219 182.875 42.585938 182.9375 41.582031 C 183 40.578125 183.207031 39.605469 183.558594 38.664062 C 183.910156 37.722656 184.390625 36.847656 185 36.050781 C 185.609375 35.25 186.320312 34.554688 187.136719 33.964844 C 187.832031 33.351562 188.578125 32.804688 189.371094 32.320312 C 192.269531 30.613281 194.863281 28.527344 197.144531 26.054688 C 198.105469 25.089844 198.945312 24.023438 199.65625 22.859375 C 200.054688 21.996094 200.554688 21.199219 201.164062 20.464844 C 201.875 21.671875 202.488281 22.925781 203.007812 24.226562 C 205.042969 28.222656 207 32.246094 209.097656 36.207031 C 209.632812 37.175781 209.71875 38.179688 209.363281 39.226562 C 208.816406 41.671875 207.933594 43.988281 206.714844 46.179688 C 205.496094 48.367188 203.992188 50.339844 202.203125 52.097656 C 197.179688 56.734375 191.34375 59.617188 184.347656 59.617188 C 184.054688 59.574219 183.765625 59.515625 183.480469 59.441406 Z M 183.480469 59.441406 " fill-opacity="1" fill-rule="nonzero"/><path fill="#ff66c4" d="M 224.945312 21.078125 C 225.902344 20.46875 226.683594 19.683594 227.289062 18.722656 C 227.894531 17.761719 228.265625 16.71875 228.398438 15.589844 C 228.550781 14.777344 228.613281 13.9375 228.714844 13.085938 C 231.324219 15.503906 233.371094 18.421875 235.921875 20.890625 C 236.09375 21.121094 236.28125 21.332031 236.488281 21.53125 C 238.671875 22.972656 238.722656 24.941406 238.195312 27.269531 C 236.652344 34.039062 230.925781 39.203125 224.859375 39.964844 C 226.050781 37.148438 224.769531 34.765625 223.679688 32.347656 C 223.289062 31.507812 222.925781 30.65625 222.574219 29.839844 C 222.265625 29.082031 222.089844 28.292969 222.039062 27.476562 C 221.988281 26.65625 222.074219 25.851562 222.285156 25.0625 C 222.5 24.273438 222.835938 23.535156 223.289062 22.855469 C 223.746094 22.171875 224.296875 21.582031 224.945312 21.078125 Z M 224.945312 21.078125 " fill-opacity="1" fill-rule="nonzero"/><path fill="#ff66c4" d="M 247.601562 6.667969 C 249.910156 7.921875 252.160156 9.25 254.53125 10.339844 C 254.816406 10.445312 255.074219 10.597656 255.304688 10.792969 C 255.539062 10.988281 255.730469 11.214844 255.882812 11.476562 C 256.035156 11.738281 256.140625 12.019531 256.199219 12.316406 C 256.253906 12.613281 256.261719 12.910156 256.214844 13.210938 C 256.210938 14.117188 256.101562 15.011719 255.894531 15.890625 C 255.683594 16.773438 255.378906 17.621094 254.980469 18.4375 C 254.582031 19.25 254.09375 20.007812 253.523438 20.714844 C 252.953125 21.417969 252.308594 22.050781 251.59375 22.609375 C 251.378906 22.773438 251.191406 22.984375 250.992188 23.171875 C 250.566406 23.171875 250.125 23.3125 250.164062 22.621094 C 250.167969 21.609375 249.949219 20.648438 249.507812 19.738281 C 249.066406 18.824219 248.449219 18.058594 247.652344 17.433594 C 246.609375 16.5625 245.648438 15.617188 244.761719 14.589844 C 243.382812 12.785156 243.40625 11.832031 244.976562 10.164062 C 245.660156 9.410156 246.21875 8.574219 246.660156 7.65625 C 246.886719 7.257812 247.011719 6.753906 247.601562 6.667969 Z M 247.601562 6.667969 " fill-opacity="1" fill-rule="nonzero"/><path fill="#ff914d" d="M 107.519531 196.386719 C 107.808594 197.335938 106.992188 197.800781 106.550781 198.378906 C 101.636719 204.570312 97.140625 211.054688 93.066406 217.828125 C 90.308594 222.117188 88.242188 226.710938 86.863281 231.613281 C 86.601562 232.957031 86.441406 234.308594 86.386719 235.675781 C 85.59375 232.066406 86.824219 227.828125 88.128906 224.296875 C 89.34375 221.070312 90.863281 217.996094 92.6875 215.070312 C 96.722656 208.445312 101.109375 202.0625 105.847656 195.921875 Z M 107.519531 196.386719 " fill-opacity="1" fill-rule="nonzero"/><path fill="#050a30" d="M 218.769531 81.75 C 219.257812 83.394531 220.019531 84.902344 221.054688 86.273438 C 222.664062 88.542969 224.066406 90.929688 225.261719 93.441406 C 226.589844 96.5 227.371094 99.632812 225.953125 102.917969 C 225.832031 103.328125 225.777344 103.746094 225.789062 104.171875 C 225.769531 104.417969 225.726562 104.664062 225.65625 104.902344 C 225.585938 105.140625 225.488281 105.367188 225.367188 105.585938 C 225.246094 105.804688 225.105469 106.007812 224.9375 106.195312 C 224.773438 106.382812 224.589844 106.546875 224.390625 106.695312 C 224.1875 106.84375 223.972656 106.96875 223.746094 107.066406 C 223.515625 107.167969 223.28125 107.242188 223.035156 107.292969 C 222.792969 107.339844 222.542969 107.363281 222.292969 107.359375 C 222.046875 107.355469 221.800781 107.324219 221.554688 107.265625 C 219.953125 106.824219 218.515625 106.0625 217.25 104.984375 C 214.261719 102.4375 211.507812 99.660156 208.984375 96.652344 C 207.632812 95.042969 206.191406 93.511719 204.667969 92.0625 C 204.300781 92.679688 204.730469 93.078125 204.867188 93.429688 C 206.445312 97.179688 208.398438 100.726562 210.71875 104.070312 C 211.910156 105.851562 213.078125 107.628906 214.246094 109.421875 C 215.070312 110.683594 215.691406 112.035156 216.105469 113.480469 C 216.570312 115.160156 217.035156 116.816406 215.101562 118.007812 C 214.5625 118.34375 214.800781 119.433594 213.769531 119.449219 C 212.890625 119.417969 212.097656 119.144531 211.382812 118.632812 C 209.101562 117.136719 207.097656 115.332031 205.371094 113.21875 C 201.355469 108.546875 198.121094 103.386719 195.664062 97.742188 C 194.832031 95.765625 194.296875 93.714844 194.054688 91.589844 C 193.777344 89.355469 194.46875 87.226562 194.695312 85.058594 C 194.945312 82.550781 197.660156 81.160156 200.21875 81.625 C 202.449219 82.125 204.542969 82.960938 206.5 84.132812 C 208.875 85.429688 211.085938 86.96875 213.128906 88.742188 C 213.207031 88.203125 213.050781 87.75 212.652344 87.378906 C 210.976562 85.238281 209.335938 83.085938 207.730469 80.921875 C 206.898438 79.855469 206.191406 78.710938 205.609375 77.488281 C 205.210938 76.800781 204.972656 76.0625 204.886719 75.273438 C 204.800781 74.480469 204.878906 73.710938 205.117188 72.953125 C 205.230469 72.320312 205.230469 71.691406 205.117188 71.058594 C 205.089844 70.476562 205.210938 69.925781 205.472656 69.40625 C 205.738281 68.882812 206.113281 68.460938 206.601562 68.140625 C 207.417969 67.53125 208.324219 67.117188 209.320312 66.898438 C 210.316406 66.679688 211.316406 66.675781 212.3125 66.886719 C 215.996094 67.753906 219.53125 69.023438 222.925781 70.695312 C 226.316406 72.367188 229.476562 74.398438 232.40625 76.785156 C 233.808594 77.914062 234.960938 79.257812 235.859375 80.816406 C 236.757812 82.375 237.339844 84.042969 237.605469 85.824219 C 237.832031 87.175781 237.761719 88.511719 237.390625 89.832031 C 237.152344 90.421875 237.027344 91.03125 237.015625 91.664062 C 237.0625 92.261719 236.949219 92.828125 236.679688 93.363281 C 236.40625 93.898438 236.011719 94.324219 235.5 94.640625 C 234.988281 94.953125 234.429688 95.113281 233.828125 95.113281 C 233.226562 95.113281 232.667969 94.957031 232.15625 94.644531 C 231.457031 94.273438 230.839844 93.800781 230.296875 93.230469 C 227.785156 90.785156 225.488281 88.214844 223.1875 85.546875 C 221.976562 83.980469 220.5 82.714844 218.769531 81.75 Z M 218.769531 81.75 " fill-opacity="1" fill-rule="nonzero"/><path fill="#050a30" d="M 182.664062 150.050781 C 182.402344 151.507812 183.027344 152.472656 182.753906 153.585938 C 182.5 154.386719 182.140625 155.132812 181.671875 155.828125 C 181.207031 156.523438 180.648438 157.136719 180.003906 157.671875 C 179.355469 158.207031 178.648438 158.640625 177.875 158.96875 C 177.105469 159.300781 176.300781 159.515625 175.46875 159.613281 C 173.359375 159.902344 171.355469 159.554688 169.464844 158.574219 C 166.761719 157.175781 164.28125 155.453125 162.023438 153.414062 C 159.765625 151.371094 157.804688 149.078125 156.144531 146.53125 C 155.765625 146.003906 155.503906 145.421875 155.363281 144.789062 C 155.050781 142.988281 154.585938 141.230469 153.96875 139.511719 C 153.015625 137.003906 155.890625 134.3125 158.503906 134.914062 C 160.078125 135.316406 161.378906 136.152344 162.398438 137.417969 C 163.652344 138.921875 164.910156 140.503906 166.164062 142.042969 C 167.191406 143.425781 168.445312 144.554688 169.929688 145.425781 C 170.523438 145.753906 171.1875 146.21875 171.902344 145.589844 C 172.171875 145.34375 172.339844 145.042969 172.40625 144.683594 C 172.472656 144.328125 172.421875 143.984375 172.253906 143.660156 C 171.914062 142.636719 171.496094 141.648438 171 140.691406 C 169.699219 137.914062 168.179688 135.261719 166.441406 132.730469 C 164.355469 129.722656 163.929688 126.304688 163.566406 122.84375 C 163.539062 122.527344 163.550781 122.210938 163.605469 121.894531 C 163.65625 121.578125 163.742188 121.273438 163.867188 120.980469 C 163.992188 120.6875 164.148438 120.410156 164.339844 120.152344 C 164.53125 119.898438 164.75 119.667969 164.996094 119.464844 C 165.242188 119.261719 165.507812 119.089844 165.796875 118.949219 C 166.082031 118.808594 166.382812 118.703125 166.695312 118.636719 C 167.007812 118.570312 167.324219 118.539062 167.644531 118.546875 C 167.964844 118.554688 168.277344 118.601562 168.585938 118.683594 C 170.128906 119.050781 171.554688 119.671875 172.871094 120.550781 C 175.210938 122.03125 177.398438 123.703125 179.441406 125.570312 C 181.488281 127.4375 183.351562 129.46875 185.035156 131.664062 C 186.71875 133.855469 188.195312 136.183594 189.46875 138.636719 C 190.742188 141.09375 191.789062 143.640625 192.609375 146.28125 C 193.898438 150.300781 194.597656 154.417969 194.707031 158.636719 C 194.808594 161.34375 195.273438 164.011719 195.210938 166.71875 C 195.195312 168.371094 194.902344 169.972656 194.332031 171.519531 C 194.269531 171.753906 194.183594 171.976562 194.074219 172.191406 C 193.964844 172.40625 193.835938 172.609375 193.683594 172.796875 C 193.535156 172.988281 193.367188 173.15625 193.179688 173.3125 C 192.996094 173.464844 192.796875 173.601562 192.582031 173.714844 C 192.371094 173.828125 192.148438 173.917969 191.917969 173.984375 C 191.683594 174.054688 191.449219 174.097656 191.207031 174.117188 C 190.96875 174.136719 190.726562 174.128906 190.488281 174.101562 C 190.246094 174.070312 190.015625 174.015625 189.785156 173.9375 C 189.398438 173.769531 189.015625 173.769531 188.628906 173.9375 C 188.402344 174.109375 188.148438 174.226562 187.867188 174.28125 C 187.585938 174.335938 187.308594 174.332031 187.03125 174.257812 C 186.753906 174.1875 186.503906 174.0625 186.285156 173.878906 C 186.066406 173.695312 185.898438 173.472656 185.777344 173.210938 C 185.066406 172.199219 184.648438 171.074219 184.523438 169.839844 C 184.234375 167.796875 184.085938 165.742188 184.070312 163.675781 C 184.230469 160.464844 184.089844 157.269531 183.65625 154.085938 C 183.535156 152.691406 183.203125 151.347656 182.664062 150.050781 Z M 182.664062 150.050781 " fill-opacity="1" fill-rule="nonzero"/><path fill="#050a30" d="M 197.105469 126.730469 C 196.613281 125.238281 195.839844 123.914062 194.78125 122.757812 C 192.347656 119.796875 189.871094 116.855469 187.425781 113.882812 C 186.144531 112.347656 184.996094 110.71875 183.984375 108.996094 C 183.367188 108.074219 182.949219 107.074219 182.730469 105.988281 C 182.515625 104.902344 182.511719 103.816406 182.726562 102.730469 C 182.796875 102.09375 182.730469 101.46875 182.527344 100.863281 C 182.175781 98.269531 183.253906 97.214844 185.816406 97.777344 C 187.289062 98.132812 188.644531 98.742188 189.886719 99.609375 C 192.433594 101.363281 194.667969 103.453125 196.589844 105.875 C 200.453125 110.238281 203.417969 115.140625 205.480469 120.589844 C 206.601562 123.796875 207.304688 127.117188 206.046875 130.390625 C 205.042969 133.007812 203.75 135.589844 200.898438 136.832031 C 199.339844 137.515625 197.734375 137.640625 196.089844 137.207031 C 194.039062 136.757812 192.183594 135.886719 190.527344 134.601562 C 187.375 132.121094 184.566406 129.304688 182.09375 126.148438 C 179.625 122.992188 177.566406 119.589844 175.921875 115.9375 C 175.230469 114.308594 175.207031 112.503906 174.414062 110.925781 C 174.175781 110.222656 174.175781 109.523438 174.414062 108.820312 C 174.441406 108.625 174.488281 108.433594 174.558594 108.246094 C 174.628906 108.0625 174.71875 107.886719 174.832031 107.722656 C 174.945312 107.558594 175.074219 107.410156 175.222656 107.277344 C 175.371094 107.144531 175.53125 107.03125 175.707031 106.933594 C 175.878906 106.839844 176.0625 106.765625 176.257812 106.714844 C 176.449219 106.664062 176.644531 106.636719 176.84375 106.632812 C 177.042969 106.625 177.238281 106.644531 177.433594 106.6875 C 177.628906 106.726562 177.8125 106.792969 177.992188 106.878906 C 179.117188 107.378906 180.09375 108.085938 180.917969 108.996094 C 183.554688 111.71875 185.941406 114.640625 188.078125 117.769531 C 189.695312 120.121094 191.507812 122.3125 193.515625 124.347656 C 194.527344 125.421875 195.722656 126.214844 197.105469 126.730469 Z M 197.105469 126.730469 " fill-opacity="1" fill-rule="nonzero"/><path fill="#ffffff" d="M 195.421875 86.824219 C 195.285156 83.640625 196.792969 82.238281 199.996094 82.539062 C 201.273438 82.710938 202.484375 83.101562 203.625 83.703125 C 206.742188 85.144531 209.609375 86.980469 212.226562 89.207031 C 213.085938 90.070312 214.058594 90.785156 215.140625 91.351562 C 215.941406 91.699219 216.394531 91.425781 216.394531 90.558594 C 216.359375 89.761719 216.121094 89.03125 215.679688 88.367188 C 214.671875 86.566406 213.484375 84.894531 212.113281 83.355469 C 209.625 80.292969 207.679688 76.921875 206.273438 73.242188 C 205.21875 70.632812 205.945312 68.140625 209.675781 67.699219 C 210.953125 67.507812 212.210938 67.605469 213.445312 67.988281 C 217.847656 69.417969 222.078125 71.257812 226.128906 73.503906 C 228.359375 74.785156 230.421875 76.292969 232.316406 78.027344 C 233.738281 79.257812 234.84375 80.726562 235.625 82.4375 C 236.40625 84.144531 236.800781 85.9375 236.800781 87.816406 C 236.796875 88.53125 236.671875 89.226562 236.425781 89.894531 C 235.621094 92.113281 233.546875 93.554688 231.148438 91.148438 C 228.964844 89.007812 226.804688 86.839844 224.808594 84.519531 C 223.929688 83.492188 222.949219 82.539062 221.984375 81.597656 C 221.324219 80.917969 220.539062 80.433594 219.636719 80.144531 C 218.378906 79.769531 217.5625 80.507812 217.863281 81.875 C 218.324219 83.460938 219.035156 84.921875 220 86.261719 C 221.253906 88.191406 222.449219 90.097656 223.589844 92.0625 C 224.917969 94.242188 225.65625 96.601562 225.800781 99.144531 C 225.902344 100.539062 225.582031 101.824219 224.832031 103.003906 C 224.746094 103.203125 224.640625 103.386719 224.511719 103.558594 C 224.382812 103.730469 224.234375 103.886719 224.070312 104.027344 C 223.90625 104.164062 223.730469 104.285156 223.539062 104.382812 C 223.34375 104.480469 223.144531 104.558594 222.9375 104.609375 C 222.726562 104.664062 222.515625 104.691406 222.300781 104.699219 C 222.085938 104.703125 221.871094 104.683594 221.660156 104.640625 C 221.449219 104.597656 221.246094 104.53125 221.050781 104.441406 C 220.855469 104.351562 220.671875 104.238281 220.5 104.109375 C 219.878906 103.753906 219.300781 103.335938 218.769531 102.855469 C 215.023438 99.550781 211.476562 96.046875 208.121094 92.351562 C 207.21875 91.238281 206.195312 90.257812 205.042969 89.40625 C 203.863281 88.65625 203.121094 89.082031 203.148438 90.460938 C 203.222656 91.390625 203.460938 92.273438 203.863281 93.117188 C 205.527344 97.210938 207.621094 101.074219 210.140625 104.710938 C 211.398438 106.664062 212.753906 108.621094 213.984375 110.613281 C 214.894531 112.007812 215.441406 113.53125 215.628906 115.1875 C 215.78125 116.929688 214.964844 117.566406 213.292969 117.066406 C 211.921875 116.605469 210.726562 115.855469 209.714844 114.824219 C 206.992188 112.171875 204.675781 109.199219 202.769531 105.914062 C 200.148438 101.738281 198.054688 97.3125 196.492188 92.640625 C 195.90625 90.746094 195.546875 88.804688 195.421875 86.824219 Z M 195.421875 86.824219 " fill-opacity="1" fill-rule="nonzero"/><path fill="#ffffff" d="M 178.746094 137.894531 C 180.449219 140.84375 181.484375 144.011719 181.847656 147.394531 C 181.902344 147.835938 181.917969 148.28125 181.894531 148.722656 C 181.871094 149.167969 181.808594 149.609375 181.707031 150.042969 C 181.605469 150.472656 181.464844 150.894531 181.289062 151.304688 C 181.113281 151.710938 180.898438 152.101562 180.652344 152.472656 C 180.40625 152.84375 180.128906 153.191406 179.824219 153.511719 C 179.515625 153.835938 179.179688 154.128906 178.820312 154.390625 C 178.460938 154.652344 178.082031 154.882812 177.679688 155.078125 C 177.28125 155.273438 176.863281 155.433594 176.4375 155.554688 C 174.636719 155.878906 172.894531 155.699219 171.199219 155.015625 C 167.890625 153.765625 164.992188 151.890625 162.496094 149.386719 C 159.515625 146.785156 157.089844 143.746094 155.214844 140.265625 C 154.921875 139.761719 154.785156 139.222656 154.800781 138.640625 C 154.816406 138.0625 154.984375 137.527344 155.300781 137.042969 C 155.429688 136.761719 155.605469 136.515625 155.828125 136.300781 C 156.050781 136.089844 156.304688 135.925781 156.589844 135.808594 C 156.875 135.691406 157.175781 135.632812 157.484375 135.628906 C 157.792969 135.625 158.089844 135.679688 158.378906 135.789062 C 159.359375 136.050781 160.21875 136.53125 160.953125 137.230469 C 161.984375 138.21875 162.917969 139.292969 163.753906 140.453125 C 164.707031 141.796875 165.765625 143.046875 166.929688 144.210938 C 167.585938 144.875 168.308594 145.453125 169.101562 145.941406 C 171.738281 147.519531 173.472656 146.59375 173.648438 143.433594 C 173.726562 141.613281 173.308594 139.914062 172.394531 138.335938 C 171.023438 135.914062 169.605469 133.535156 168.222656 131.128906 C 167.332031 129.597656 166.414062 128.070312 165.597656 126.503906 C 164.929688 125.296875 164.574219 124.007812 164.53125 122.632812 C 164.515625 122.394531 164.53125 122.15625 164.574219 121.921875 C 164.613281 121.6875 164.683594 121.457031 164.777344 121.238281 C 164.871094 121.019531 164.988281 120.8125 165.132812 120.621094 C 165.273438 120.429688 165.4375 120.257812 165.621094 120.105469 C 165.800781 119.949219 166 119.820312 166.214844 119.710938 C 166.425781 119.605469 166.648438 119.523438 166.882812 119.464844 C 167.117188 119.410156 167.351562 119.382812 167.589844 119.378906 C 167.828125 119.378906 168.066406 119.40625 168.300781 119.460938 C 170.054688 119.855469 171.664062 120.582031 173.121094 121.640625 C 175.363281 123.121094 177.457031 124.785156 179.410156 126.628906 C 181.359375 128.476562 183.136719 130.476562 184.734375 132.632812 C 186.335938 134.789062 187.738281 137.066406 188.941406 139.464844 C 190.140625 141.863281 191.128906 144.347656 191.894531 146.917969 C 193.300781 151.40625 194.046875 156.003906 194.144531 160.703125 C 194.144531 162.835938 194.367188 164.964844 194.53125 167.097656 C 194.628906 168.625 194.320312 170.066406 193.601562 171.421875 C 192.433594 173.726562 190.226562 173.925781 188.707031 171.769531 C 188.183594 171.007812 187.832031 170.171875 187.648438 169.265625 C 186.808594 165.707031 186.996094 162.058594 186.769531 158.449219 C 186.417969 152.960938 185.515625 147.570312 183.003906 142.621094 C 182.265625 141.0625 181.296875 139.667969 180.089844 138.433594 C 179.703125 138.121094 179.425781 137.59375 178.746094 137.894531 Z M 178.746094 137.894531 " fill-opacity="1" fill-rule="nonzero"/><path fill="#ffffff" d="M 205.707031 126.753906 C 205.570312 133.332031 201.4375 136.214844 195.023438 133.710938 C 191.570312 132.167969 188.640625 129.949219 186.230469 127.042969 C 182.132812 122.289062 178.578125 117.160156 175.570312 111.652344 C 175.234375 111.089844 175.054688 110.480469 175.03125 109.824219 C 175.03125 107.78125 176.574219 106.863281 178.320312 107.917969 C 179.617188 108.789062 180.75 109.832031 181.722656 111.050781 C 183.945312 113.558594 185.878906 116.289062 187.875 118.984375 C 189.410156 121.136719 191.121094 123.140625 193.011719 124.988281 C 194.171875 126.179688 195.527344 127.074219 197.082031 127.667969 C 198.261719 128.070312 198.863281 127.570312 198.800781 126.316406 C 198.648438 125.074219 198.148438 123.992188 197.308594 123.070312 C 195.6875 120.988281 193.953125 118.996094 192.285156 116.941406 C 189.625 113.859375 187.347656 110.515625 185.453125 106.914062 C 184.339844 104.824219 183.621094 102.605469 183.304688 100.261719 C 183.140625 98.554688 183.507812 98.191406 185.214844 98.46875 C 186.628906 98.75 187.925781 99.300781 189.105469 100.121094 C 191.484375 101.722656 193.578125 103.628906 195.386719 105.851562 C 199.332031 110.238281 202.367188 115.183594 204.488281 120.6875 C 205.273438 122.636719 205.679688 124.65625 205.707031 126.753906 Z M 205.707031 126.753906 " fill-opacity="1" fill-rule="nonzero"/><g fill="#ff66c4" fill-opacity="1"><g transform="translate(109.660052, 370.621104)"><g><path d="M 23.0625 -41.097656 L 2.769531 -39.824219 C 0.789062 -39.699219 -0.742188 -37.964844 -0.613281 -35.9375 L 1.402344 -3.765625 C 1.53125 -1.734375 3.265625 -0.203125 5.246094 -0.328125 L 11.433594 -0.71875 C 13.460938 -0.84375 14.992188 -2.578125 14.867188 -4.609375 L 14.28125 -13.914062 C 14.265625 -14.160156 14.410156 -14.269531 14.605469 -14.332031 L 21.878906 -14.789062 C 23.167969 -14.867188 24.191406 -15.976562 24.109375 -17.261719 L 23.769531 -22.707031 C 23.683594 -24.042969 22.53125 -25.015625 21.242188 -24.933594 L 13.96875 -24.476562 C 13.769531 -24.464844 13.613281 -24.605469 13.597656 -24.800781 L 13.3125 -29.355469 C 13.304688 -29.503906 13.441406 -29.710938 13.636719 -29.722656 L 23.734375 -30.355469 C 25.171875 -30.445312 26.234375 -31.707031 26.148438 -33.09375 L 25.800781 -38.636719 C 25.707031 -40.121094 24.496094 -41.1875 23.0625 -41.097656 Z M 23.0625 -41.097656 "/></g></g></g><g fill="#ff66c4" fill-opacity="1"><g transform="translate(139.395634, 368.756362)"><g><path d="M 14.457031 -41.253906 C 6.339844 -40.746094 -1.269531 -33.707031 -0.757812 -25.542969 L -0.0507812 -14.257812 C 0.480469 -5.792969 8.910156 0.285156 17.027344 -0.222656 C 25.34375 -0.746094 32.75 -7.816406 32.21875 -16.28125 L 31.511719 -27.566406 C 31 -35.730469 22.769531 -41.773438 14.457031 -41.253906 Z M 19.371094 -15.972656 C 19.476562 -14.289062 18.035156 -12.707031 16.253906 -12.597656 C 14.421875 -12.480469 12.894531 -13.875 12.789062 -15.558594 L 12.167969 -25.457031 C 12.054688 -27.238281 13.398438 -28.816406 15.230469 -28.929688 C 17.011719 -29.042969 18.636719 -27.652344 18.75 -25.871094 Z M 19.371094 -15.972656 "/></g></g></g><g fill="#ff66c4" fill-opacity="1"><g transform="translate(173.336757, 366.627886)"><g><path d="M 32.15625 -6.238281 L 28.332031 -18.074219 C 28.207031 -18.464844 28.089844 -18.753906 27.925781 -18.992188 C 29.941406 -21.703125 31.128906 -24.957031 30.859375 -29.261719 C 30.382812 -36.835938 25.730469 -41.3125 20.335938 -40.976562 L 2.472656 -39.804688 C 0.542969 -39.683594 -0.894531 -38.003906 -0.714844 -35.183594 L 1.261719 -3.65625 C 1.375 -1.824219 3.011719 -0.335938 4.941406 -0.457031 L 11.273438 -0.855469 C 12.265625 -0.917969 13.230469 -1.375 13.824219 -2.207031 C 14.652344 -3.253906 14.570312 -3.796875 14.519531 -4.585938 L 14 -12.851562 C 13.996094 -12.953125 14.03125 -13.152344 14.230469 -13.164062 C 14.429688 -13.175781 14.535156 -13.035156 14.542969 -12.9375 L 15.066406 -10.933594 L 16.730469 -4.972656 C 17.367188 -2.777344 19.640625 -1.378906 21.324219 -1.484375 L 29.339844 -1.988281 C 31.269531 -2.109375 32.796875 -3.945312 32.15625 -6.238281 Z M 17.625 -27.140625 L 17.671875 -26.449219 C 17.769531 -24.863281 16.515625 -23.445312 14.933594 -23.347656 L 13.992188 -23.285156 C 13.597656 -23.261719 13.332031 -23.542969 13.308594 -23.890625 L 12.976562 -29.1875 C 12.953125 -29.53125 13.183594 -29.84375 13.578125 -29.871094 L 14.519531 -29.929688 C 16.105469 -30.027344 17.523438 -28.773438 17.625 -27.140625 Z M 17.625 -27.140625 "/></g></g></g><g fill="#ff66c4" fill-opacity="1"><g transform="translate(207.525262, 364.483898)"><g><path d="M 50.417969 -6.589844 C 50.394531 -6.9375 50.410156 -6.738281 43.695312 -38.515625 C 43.164062 -40.617188 41.230469 -42.136719 39 -42.046875 L 30.4375 -41.511719 C 28.261719 -41.375 26.527344 -39.722656 26.308594 -37.625 L 25.066406 -25.769531 C 25.042969 -25.320312 24.71875 -25.003906 24.273438 -24.976562 C 23.777344 -24.945312 23.351562 -25.363281 23.324219 -25.808594 L 23.328125 -25.761719 L 21.28125 -37.011719 C 20.847656 -39.167969 18.859375 -40.734375 16.582031 -40.640625 L 8.019531 -40.105469 C 5.839844 -39.96875 4.15625 -38.320312 3.890625 -36.21875 L 2.394531 -21.265625 L 1.027344 -8.164062 L 0.640625 -4.066406 C 0.605469 -3.8125 0.617188 -3.617188 0.628906 -3.46875 C 0.746094 -1.585938 2.375 -0.148438 4.207031 -0.265625 L 10.691406 -0.671875 L 10.738281 -0.671875 L 10.839844 -0.679688 C 12.46875 -0.832031 13.730469 -2.101562 13.878906 -3.703125 L 15.480469 -17.816406 L 15.636719 -19.265625 L 18.71875 -4.203125 C 18.972656 -2.53125 20.492188 -1.285156 22.222656 -1.394531 L 29.347656 -1.839844 C 31.082031 -1.949219 32.433594 -3.375 32.527344 -5.070312 L 33.566406 -19.394531 L 33.632812 -19.898438 L 33.941406 -18.972656 L 37.191406 -5.164062 C 37.585938 -3.597656 38.996094 -2.496094 40.632812 -2.546875 L 47.214844 -2.960938 C 49.148438 -3.082031 50.535156 -4.710938 50.417969 -6.589844 Z M 50.417969 -6.589844 "/></g></g></g><g fill="#5ce1e6" fill-opacity="1"><g transform="translate(65.530325, 330.260657)"><g><path d="M 49.96875 -26.328125 L 47.414062 -67.0625 C 47.230469 -70.015625 44.554688 -72.378906 41.6875 -72.199219 L 29.527344 -71.4375 C 26.574219 -71.25 24.300781 -68.578125 24.484375 -65.625 L 26.855469 -27.84375 C 26.921875 -26.800781 26.183594 -26.058594 25.226562 -25.996094 C 24.359375 -25.941406 23.625 -26.507812 23.476562 -27.457031 L 22.9375 -36.054688 C 22.832031 -37.792969 21.351562 -39.097656 19.617188 -38.988281 L 2.246094 -37.898438 C 0.507812 -37.789062 -0.792969 -36.3125 -0.6875 -34.574219 L 0.015625 -23.371094 L 0.0273438 -23.195312 C 0.894531 -9.386719 12.707031 1.035156 26.519531 0.167969 C 40.242188 -0.691406 50.835938 -12.519531 49.96875 -26.328125 Z M 49.96875 -26.328125 "/></g></g></g><g fill="#5ce1e6" fill-opacity="1"><g transform="translate(118.426023, 326.943526)"><g><path d="M 48.550781 -72.628906 L 34.824219 -71.769531 C 32.046875 -71.59375 29.941406 -69.019531 30.113281 -66.242188 L 32.585938 -26.808594 C 32.71875 -24.722656 31.085938 -22.964844 29 -22.832031 C 27.003906 -22.707031 25.160156 -24.25 25.03125 -26.335938 L 22.433594 -67.765625 C 22.324219 -69.5 20.847656 -70.804688 19.195312 -70.699219 L 0.175781 -69.507812 C -1.476562 -69.40625 -2.777344 -67.929688 -2.667969 -66.191406 L -0.0820312 -24.933594 C 0.832031 -10.339844 15.214844 0.703125 29.808594 -0.210938 C 44.140625 -1.109375 56.8125 -13.15625 56.535156 -27.351562 L 54 -67.738281 C 53.828125 -70.519531 51.328125 -72.804688 48.550781 -72.628906 Z M 48.550781 -72.628906 "/></g></g></g><g fill="#5ce1e6" fill-opacity="1"><g transform="translate(177.922832, 323.212433)"><g><path d="M 25.847656 -74.519531 C 24.804688 -74.453125 -3.167969 -74.179688 -1.65625 -50.035156 C -0.707031 -34.921875 10.78125 -26.921875 25.460938 -27.84375 L 30.671875 -28.171875 C 33.539062 -28.351562 35.992188 -26.761719 36.171875 -23.894531 C 36.34375 -21.113281 34.125 -18.96875 31.695312 -18.816406 C 30.304688 -18.730469 27.933594 -19.015625 26.84375 -22.4375 C 26.542969 -23.113281 26.167969 -23.527344 24.878906 -23.183594 L 1.777344 -18.945312 C 0.488281 -18.605469 0.285156 -17.71875 1.0625 -16.460938 C 5.242188 -6.78125 12.183594 2.375 33.898438 1.011719 C 44.839844 0.328125 58.273438 -6.53125 57.078125 -25.640625 C 55.601562 -49.179688 34.949219 -46.140625 27.65625 -45.683594 C 25.394531 -45.539062 21.019531 -45.789062 20.757812 -49.957031 C 20.546875 -53.347656 23.320312 -55.003906 25.230469 -55.121094 C 26.621094 -55.210938 29.03125 -54.3125 30.046875 -52.023438 C 30.460938 -51.003906 31.269531 -50.617188 32.136719 -50.671875 L 53.230469 -54.960938 C 54.183594 -55.105469 54.816406 -56.105469 54.476562 -57.390625 C 53.226562 -62.023438 48.167969 -75.917969 25.847656 -74.519531 Z M 25.847656 -74.519531 "/></g></g></g><g fill="#5ce1e6" fill-opacity="1"><g transform="translate(237.85391, 319.454107)"><g><path d="M 53.835938 -73.136719 L 4.589844 -70.046875 C 1.289062 -69.839844 -1.324219 -66.972656 -1.109375 -63.585938 L -0.363281 -51.6875 C -0.15625 -48.386719 2.796875 -45.78125 6.097656 -45.988281 L 18.082031 -46.738281 C 18.429688 -46.761719 18.714844 -46.429688 18.730469 -46.167969 L 21.171875 -7.257812 C 21.378906 -3.957031 24.242188 -1.347656 27.71875 -1.5625 L 39.53125 -2.304688 C 42.832031 -2.511719 45.4375 -5.464844 45.230469 -8.765625 L 42.789062 -47.675781 C 42.773438 -47.9375 43.097656 -48.308594 43.445312 -48.328125 L 55.34375 -49.074219 C 58.644531 -49.28125 61.25 -52.234375 61.042969 -55.535156 L 60.296875 -67.4375 C 60.085938 -70.824219 57.136719 -73.34375 53.835938 -73.136719 Z M 53.835938 -73.136719 "/></g></g></g><path stroke-linecap="butt" transform="matrix(1.20217, -0.075389, 0.075389, 1.20217, 0.817099, 263.359612)" fill="none" stroke-linejoin="miter" d="M 95.883027 38.772475 L 95.88286 4.888425 C 95.883982 2.435249 93.786468 0.337866 91.4047 0.337973 L 81.279863 0.336656 C 78.826484 0.338771 76.797273 2.43731 76.79959 4.887452 L 76.79744 36.321361 C 76.798472 37.185748 76.16417 37.766593 75.371191 37.768854 C 74.646587 37.768904 74.064705 37.254762 73.994069 36.463994 L 73.993749 29.318691 C 73.993446 27.872719 72.828498 26.707888 71.382526 26.708192 L 56.935955 26.708799 C 55.489983 26.709103 54.344775 27.872032 54.345078 29.318004 L 54.342515 38.63368 L 54.343497 38.773463 C 54.343712 50.272864 63.586646 59.518466 75.069864 59.517236 C 86.481471 59.518014 95.883039 50.275114 95.883027 38.772475 Z M 141.099973 0.338293 L 129.688366 0.337515 C 127.378006 0.338851 125.509226 2.366218 125.507325 4.676374 L 125.509944 37.485049 C 125.508772 39.213621 124.060892 40.591521 122.332321 40.590349 C 120.658974 40.589391 119.21147 39.21513 119.212642 37.486559 L 119.21017 3.017484 C 119.209867 1.571512 118.064339 0.407899 116.689775 0.409431 L 100.865607 0.408131 C 99.491043 0.409663 98.345835 1.572593 98.342901 3.018362 L 98.344594 37.344417 C 98.343867 49.480629 109.68745 59.374608 121.823661 59.375336 C 133.745445 59.375614 144.858408 50.045076 145.36883 38.278759 L 145.370424 4.677511 C 145.369089 2.367151 143.429752 0.338176 141.099973 0.338293 Z M 171.896432 -2.396478 C 171.012625 -2.396663 147.83465 -3.632467 147.835489 16.458209 C 147.836287 29.036425 156.936829 36.252013 169.144652 36.250733 L 173.482568 36.249823 C 175.864336 36.249716 177.804401 37.697107 177.804508 40.078874 C 177.805844 42.389234 175.862698 44.048012 173.835141 44.047586 C 172.688155 44.047143 170.731473 43.693735 170.009499 40.802044 C 169.795801 40.22001 169.496283 39.866545 168.420458 40.078522 L 149.052485 42.389467 C 147.975645 42.617627 147.764504 43.341984 148.330691 44.417277 C 151.294135 52.654963 156.567191 60.592328 174.630107 60.5943 C 183.731558 60.593177 195.230993 55.618236 195.233318 39.725896 C 195.232979 20.145397 177.96294 21.593609 171.896452 21.593346 C 170.008678 21.591938 166.390604 21.15059 166.390727 17.677061 C 166.391113 14.872911 168.772331 13.638024 170.377505 13.637956 C 171.524492 13.638399 173.481673 14.501984 174.206877 16.461319 C 174.487475 17.323742 175.141204 17.676673 175.862571 17.67642 L 193.556216 15.224735 C 194.350221 15.154302 194.932781 14.362255 194.721007 13.283193 C 193.926625 9.369921 190.450105 -2.396223 171.896432 -2.396478 Z M 244.853548 0.196629 L 203.895806 0.195109 C 201.146678 0.198173 198.835647 2.438256 198.834245 5.258589 L 198.83419 15.156053 C 198.834017 17.904977 201.145509 20.217237 203.89767 20.217613 L 213.863508 20.215458 C 214.162291 20.217948 214.375446 20.49776 214.374996 20.712188 L 214.376089 53.078858 C 214.375714 55.83102 216.615797 58.142051 219.507741 58.141445 L 229.333797 58.140271 C 232.066335 58.142666 234.378595 55.831174 234.375734 53.07881 L 234.377878 20.712342 C 234.378328 20.497915 234.678586 20.217806 234.958151 20.215841 L 244.855615 20.215897 C 247.607776 20.216272 249.9168 17.904578 249.916972 15.155653 L 249.917028 5.258189 C 249.918429 2.437857 247.605709 0.197005 244.853548 0.196629 Z M 244.853548 0.196629 " stroke="#050a30" stroke-width="1.174101" stroke-opacity="1" stroke-miterlimit="4"/></svg>